# xmcd CD database file
#
# Track frame offsets:
#	150
#	23490
#	44732
#	62410
#	83537
#	114312
#	136740
#	159325
#	178722
#
# Disc length: 2557 seconds
#
# Revision: 0
# Processed by: cddbd v1.5PL3 Copyright (c) Steve Scherf et al.
# Submitted via: CDex 1.50
#
DISCID=6209fb09
DTITLE=HOUND DOG - VOICE (RIGHT SIDE)
DYEAR=1900
DGENRE=Pop
TTITLE0=TELEPHONE
TTITLE1=Lonely Soldier
TTITLE2=俺はラッキースター
TTITLE3=Moonlight and Champagne
TTITLE4=SILENCE
TTITLE5=くたばれMIDNIGHT
TTITLE6=大地の子供たち（VOICE Version）
TTITLE7=OVERLAND JOURNEY
TTITLE8=スポットライト
EXTD=
EXTT0=
EXTT1=
EXTT2=
EXTT3=
EXTT4=
EXTT5=
EXTT6=
EXTT7=
EXTT8=
PLAYORDER=
